<svg width="56" height="56" viewBox="0 0 56 56" fill="none" xmlns="http://www.w3.org/2000/svg">
<rect width="56" height="56" rx="28" fill="#65A289" fill-opacity="0.2"/>
<path d="M36.1668 30.3333C37.9052 28.63 39.6668 26.5883 39.6668 23.9167C39.6668 22.2149 38.9908 20.5828 37.7874 19.3794C36.5841 18.176 34.952 17.5 33.2502 17.5C31.1968 17.5 29.7502 18.0833 28.0002 19.8333C26.2502 18.0833 24.8035 17.5 22.7502 17.5C21.0484 17.5 19.4163 18.176 18.2129 19.3794C17.0095 20.5828 16.3335 22.2149 16.3335 23.9167C16.3335 26.6 18.0835 28.6417 19.8335 30.3333L28.0002 38.5L36.1668 30.3333Z" stroke="#4DBD89" stroke-width="2.33333" stroke-linecap="round" stroke-linejoin="round"/>
<path d="M28.0002 19.8335L24.5469 23.2868C24.3098 23.5222 24.1217 23.8021 23.9933 24.1104C23.8649 24.4188 23.7988 24.7495 23.7988 25.0835C23.7988 25.4175 23.8649 25.7482 23.9933 26.0566C24.1217 26.3649 24.3098 26.6448 24.5469 26.8802C25.5035 27.8368 27.0319 27.8718 28.0469 26.9618L30.4619 24.7452C31.0672 24.1959 31.8553 23.8916 32.6727 23.8916C33.4901 23.8916 34.2782 24.1959 34.8835 24.7452L38.3369 27.8485" stroke="#4DBD89" stroke-width="2.33333" stroke-linecap="round" stroke-linejoin="round"/>
<path d="M34.9998 31.4998L32.6665 29.1665" stroke="#4DBD89" stroke-width="2.33333" stroke-linecap="round" stroke-linejoin="round"/>
<path d="M31.4998 34.9998L29.1665 32.6665" stroke="#4DBD89" stroke-width="2.33333" stroke-linecap="round" stroke-linejoin="round"/>
</svg>
