<svg width="56" height="56" viewBox="0 0 56 56" fill="none" xmlns="http://www.w3.org/2000/svg">
<rect width="56" height="56" rx="28" fill="#65A289" fill-opacity="0.2"/>
<path d="M18.4919 24.0566C18.3216 23.2896 18.3478 22.4919 18.5679 21.7377C18.7881 20.9834 19.1951 20.297 19.7513 19.742C20.3074 19.1869 20.9948 18.7814 21.7495 18.5628C22.5042 18.3442 23.3019 18.3197 24.0686 18.4916C24.4906 17.8316 25.0719 17.2885 25.759 16.9123C26.4461 16.5361 27.2169 16.3389 28.0002 16.3389C28.7836 16.3389 29.5543 16.5361 30.2414 16.9123C30.9286 17.2885 31.5099 17.8316 31.9319 18.4916C32.6998 18.319 33.4988 18.3433 34.2547 18.5625C35.0106 18.7816 35.6989 19.1883 36.2554 19.7448C36.8119 20.3013 37.2186 20.9895 37.4377 21.7455C37.6568 22.5014 37.6812 23.3004 37.5086 24.0683C38.1685 24.4903 38.7117 25.0716 39.0879 25.7587C39.4641 26.4458 39.6613 27.2166 39.6613 28C39.6613 28.7833 39.4641 29.5541 39.0879 30.2412C38.7117 30.9283 38.1685 31.5096 37.5086 31.9316C37.6804 32.6983 37.656 33.496 37.4374 34.2507C37.2188 35.0054 36.8132 35.6927 36.2582 36.2489C35.7032 36.8051 35.0167 37.2121 34.2625 37.4323C33.5082 37.6524 32.7106 37.6786 31.9436 37.5083C31.5221 38.1708 30.9403 38.7163 30.252 39.0942C29.5638 39.4721 28.7913 39.6702 28.0061 39.6702C27.2209 39.6702 26.4484 39.4721 25.7601 39.0942C25.0718 38.7163 24.49 38.1708 24.0686 37.5083C23.3019 37.6802 22.5042 37.6557 21.7495 37.4371C20.9948 37.2185 20.3074 36.813 19.7513 36.2579C19.1951 35.7029 18.7881 35.0165 18.5679 34.2622C18.3478 33.508 18.3216 32.7103 18.4919 31.9433C17.8268 31.5224 17.279 30.9402 16.8994 30.2507C16.5199 29.5612 16.3208 28.787 16.3208 28C16.3208 27.2129 16.5199 26.4387 16.8994 25.7492C17.279 25.0597 17.8268 24.4775 18.4919 24.0566Z" stroke="#4DBD89" stroke-width="2.33333" stroke-linecap="round" stroke-linejoin="round"/>
<path d="M32.6668 23.3335H25.6668C25.048 23.3335 24.4545 23.5793 24.0169 24.0169C23.5793 24.4545 23.3335 25.048 23.3335 25.6668C23.3335 26.2857 23.5793 26.8792 24.0169 27.3167C24.4545 27.7543 25.048 28.0002 25.6668 28.0002H30.3335C30.9523 28.0002 31.5458 28.246 31.9834 28.6836C32.421 29.1212 32.6668 29.7147 32.6668 30.3335C32.6668 30.9523 32.421 31.5458 31.9834 31.9834C31.5458 32.421 30.9523 32.6668 30.3335 32.6668H23.3335" stroke="#4DBD89" stroke-width="2.33333" stroke-linecap="round" stroke-linejoin="round"/>
<path d="M28 35V21" stroke="#4DBD89" stroke-width="2.33333" stroke-linecap="round" stroke-linejoin="round"/>
</svg>
