<svg width="56" height="56" viewBox="0 0 56 56" fill="none" xmlns="http://www.w3.org/2000/svg">
<rect width="56" height="56" rx="28" fill="#65A289" fill-opacity="0.2"/>
<path d="M26.8333 16.3333V18.6666" stroke="#4DBD89" stroke-width="2.33333" stroke-linecap="round" stroke-linejoin="round"/>
<path d="M19.8333 16.3333V18.6666" stroke="#4DBD89" stroke-width="2.33333" stroke-linecap="round" stroke-linejoin="round"/>
<path d="M19.8333 17.5H18.6666C18.0477 17.5 17.4543 17.7458 17.0167 18.1834C16.5791 18.621 16.3333 19.2145 16.3333 19.8333V24.5C16.3333 26.3565 17.0707 28.137 18.3835 29.4497C19.6963 30.7625 21.4767 31.5 23.3333 31.5C25.1898 31.5 26.9702 30.7625 28.283 29.4497C29.5958 28.137 30.3333 26.3565 30.3333 24.5V19.8333C30.3333 19.2145 30.0874 18.621 29.6498 18.1834C29.2122 17.7458 28.6188 17.5 27.9999 17.5H26.8333" stroke="#4DBD89" stroke-width="2.33333" stroke-linecap="round" stroke-linejoin="round"/>
<path d="M23.3333 31.5C23.3333 33.3565 24.0708 35.137 25.3835 36.4497C26.6963 37.7625 28.4767 38.5 30.3333 38.5C32.1898 38.5 33.9702 37.7625 35.283 36.4497C36.5958 35.137 37.3333 33.3565 37.3333 31.5V28" stroke="#4DBD89" stroke-width="2.33333" stroke-linecap="round" stroke-linejoin="round"/>
<path d="M37.3333 27.9999C38.622 27.9999 39.6667 26.9552 39.6667 25.6666C39.6667 24.3779 38.622 23.3333 37.3333 23.3333C36.0447 23.3333 35 24.3779 35 25.6666C35 26.9552 36.0447 27.9999 37.3333 27.9999Z" stroke="#4DBD89" stroke-width="2.33333" stroke-linecap="round" stroke-linejoin="round"/>
</svg>
