<svg width="56" height="56" viewBox="0 0 56 56" fill="none" xmlns="http://www.w3.org/2000/svg">
<rect width="56" height="56" rx="28" fill="#65A289" fill-opacity="0.2"/>
<path d="M26.8335 37.3335C24.7849 37.3397 22.8088 36.5757 21.2971 35.1931C19.7854 33.8106 18.8486 31.9103 18.6724 29.8693C18.4962 27.8283 19.0935 25.7956 20.3459 24.1744C21.5982 22.5531 23.4142 21.4618 25.4335 21.1168C32.0835 19.8335 33.8335 19.2268 36.1668 16.3335C37.3335 18.6668 38.5002 21.2102 38.5002 25.6668C38.5002 32.0835 32.9235 37.3335 26.8335 37.3335Z" stroke="#4DBD89" stroke-width="2.33333" stroke-linecap="round" stroke-linejoin="round"/>
<path d="M16.3335 38.5C16.3335 35 18.4918 32.2467 22.2602 31.5C25.0835 30.94 28.0002 29.1667 29.1668 28" stroke="#4DBD89" stroke-width="2.33333" stroke-linecap="round" stroke-linejoin="round"/>
</svg>
