<svg width="92" height="92" viewBox="0 0 92 92" fill="none" xmlns="http://www.w3.org/2000/svg">
<rect width="92" height="92" rx="46" fill="#4DBD89"/>
<g clip-path="url(#clip0_419_421)">
<path d="M32.4943 28.5632L47.1494 43.4411H52.1464C44.0407 38.0274 44.1694 30.5733 46.3234 24.0178C54.039 28.4937 58.2226 33.8727 55.2136 43.4455H57.737C56.6206 36.6382 59.9409 33.5167 65.548 31.4111C66.2868 35.9132 65.6352 40.7625 59.9575 43.4455H70.7194C71.1511 43.4455 71.4997 43.8102 71.4997 44.2617C71.4997 44.2964 71.4997 44.3311 71.4956 44.3615C71.2963 49.3411 70.1882 53.6912 67.9096 57.2251C65.6062 60.7893 62.1281 63.5027 57.2099 65.1698C57.1975 65.1741 57.185 65.1785 57.1684 65.1828V67.6531C57.1684 67.8441 57.019 68.0004 56.8364 68.0004H42.2187C41.9863 68.0004 41.7912 67.8007 41.7912 67.5532V65.1611C41.7456 65.1438 41.6999 65.122 41.6584 65.096C37.1469 62.8645 33.9636 59.9254 31.8552 56.4132C29.7385 52.888 28.7133 48.8028 28.5266 44.2921C28.51 43.8449 28.842 43.4628 29.2695 43.4411C29.2819 43.4411 29.2902 43.4411 29.3027 43.4411V43.4368H32.8554L25.7167 36.5296L25.725 36.521C25.6918 36.4993 25.6628 36.4732 25.6337 36.4472C25.6254 36.4385 25.6171 36.4341 25.613 36.4255L22.0976 33.0218C22.0644 32.9871 22.0312 32.9523 22.0021 32.9133C20.4374 30.8511 20.2133 28.828 20.8027 27.2217C21.0808 26.4576 21.5456 25.7977 22.135 25.2724C22.716 24.7558 23.4216 24.3781 24.1936 24.174C26.0197 23.6878 28.236 24.1654 30.0913 26.119L32.4943 28.5632ZM53.5119 43.4411H54.7902L47.3859 26.9829L53.5119 43.4411ZM57.8574 43.4411H58.7995L64.5478 33.2389L57.8574 43.4411ZM63.4023 50.0444C63.4936 49.7188 63.8173 49.5365 64.1286 49.632C64.4399 49.7275 64.6142 50.0661 64.5229 50.3917C64.2822 51.2513 63.9917 52.1066 63.6472 52.9488C63.311 53.778 62.9292 54.5898 62.51 55.3583C62.3522 55.6535 61.9953 55.7533 61.7131 55.5884C61.4309 55.4234 61.3354 55.05 61.4931 54.7548C61.8957 54.0211 62.2526 53.2527 62.5681 52.4756C62.896 51.6811 63.174 50.8649 63.4023 50.0444ZM60.7668 55.9878C60.9453 55.7056 61.3105 55.6318 61.5761 55.8184C61.8459 56.0051 61.9165 56.3872 61.738 56.665C61.4392 57.1295 61.1279 57.5724 60.8042 57.9891C60.4846 58.4016 60.1484 58.801 59.7998 59.17C59.5756 59.4088 59.2021 59.4131 58.9738 59.1787C58.7456 58.9442 58.7414 58.5535 58.9655 58.3147C59.2851 57.9718 59.5964 57.6071 59.8911 57.2251C60.2023 56.83 60.4929 56.4176 60.7668 55.9878ZM33.175 55.5493C35.1132 58.7793 38.0517 61.4926 42.227 63.5765H56.8571C61.3562 62.0266 64.5271 59.5477 66.6189 56.309C68.611 53.2223 69.6362 49.4279 69.9018 45.0735H30.1286C30.3901 48.9721 31.3405 52.4973 33.175 55.5493ZM27.2441 35.796L35.0385 43.3369H44.8044L31.9797 30.3171L27.2441 35.796ZM22.2553 27.8078C21.8527 28.9062 22.0395 30.3432 23.1892 31.8757L26.0986 34.6932L30.8632 29.184C29.1408 27.4301 27.3146 25.0293 24.5712 25.7587C24.0275 25.9063 23.5378 26.1667 23.1394 26.5227C22.7451 26.8701 22.4379 27.3042 22.2553 27.8078Z" fill="white"/>
</g>
<defs>
<clipPath id="clip0_419_421">
<rect width="51" height="44" fill="white" transform="translate(20.5 24)"/>
</clipPath>
</defs>
</svg>
