<svg width="92" height="92" viewBox="0 0 92 92" fill="none" xmlns="http://www.w3.org/2000/svg">
<rect width="92" height="92" rx="46" fill="#4DBD89"/>
<path d="M64.7541 42.6234C64.7541 35.7875 63.357 31.4199 61.6875 27.6231C60.0068 29.4556 58.2484 30.7886 55.8696 31.8666C52.8041 33.2555 48.7576 34.197 42.678 35.4283C42.6661 35.4307 42.6533 35.4329 42.6413 35.435C39.3532 36.0246 36.375 37.8942 34.3098 40.6998C32.2432 43.5074 31.2482 47.041 31.5408 50.599C31.6275 51.6539 31.8276 52.6858 32.1277 53.6778C33.3565 53.0704 34.7126 52.6034 36.1875 52.2966C38.5743 51.7998 41.0542 50.75 43.212 49.5344C45.3808 48.3126 47.1134 46.9864 48.0408 46.0133C48.6578 45.3658 49.6853 45.3381 50.3356 45.9524C50.9858 46.5666 51.0122 47.5897 50.3954 48.2371C49.1778 49.5149 47.1559 51.025 44.8098 52.3467C42.5999 53.5916 40.0038 54.7253 37.3777 55.343L36.8519 55.4593C35.5882 55.7221 34.4383 56.1295 33.4076 56.6592C34.0754 57.8322 34.9038 58.9059 35.8764 59.8394C38.3602 62.2233 41.59 63.5266 44.9226 63.5161H44.928C55.1772 63.5161 64.7541 54.1624 64.7541 42.6234ZM68 42.6234C68 55.843 57.0743 66.7453 44.9321 66.7477H44.9307L44.928 66.7491V66.7477C40.7299 66.7597 36.6956 65.1159 33.6223 62.1661C32.5003 61.0891 31.538 59.866 30.7486 58.5381C28.4703 60.7183 27.2473 63.8016 27.2473 67.3835C27.2473 68.276 26.5201 69 25.6236 69C24.7272 69 24 68.276 24 67.3835C24 62.5348 25.8803 58.3036 29.3098 55.4904C28.778 54.0134 28.4369 52.457 28.3057 50.8628C27.9507 46.5456 29.1536 42.2362 31.6916 38.7884C34.2238 35.3486 37.9079 33.0104 42.0299 32.2615L44.2228 31.8097C49.0801 30.7907 52.1864 29.9838 54.5245 28.9244C57.0839 27.7647 58.7649 26.2807 60.7989 23.6339L60.9361 23.4756C61.28 23.1315 61.7659 22.9573 62.2582 23.009C62.8206 23.0682 63.3119 23.4146 63.5543 23.9234C65.7482 28.528 68 33.6853 68 42.6234Z" fill="white"/>
</svg>
