<svg width="92" height="92" viewBox="0 0 92 92" fill="none" xmlns="http://www.w3.org/2000/svg">
<rect width="92" height="92" rx="46" fill="#4DBD89"/>
<path d="M53.0068 21.002C54.2185 21.0272 55.4133 21.2958 56.5202 21.7894C57.6266 22.2828 58.6233 22.9919 59.4515 23.8758C60.2798 24.7601 60.9241 25.8016 61.3442 26.938C61.5605 27.5233 61.7125 28.1289 61.8045 28.743C62.861 29.1916 63.849 29.7944 64.7282 30.5422C66.0413 31.6592 67.0823 33.0619 67.7737 34.641C68.4647 36.2196 68.787 37.9346 68.7172 39.6565C68.6712 40.7878 68.4535 41.902 68.0799 42.964C68.9162 43.8934 69.5999 44.9539 70.0925 46.1117C70.817 47.8148 71.1154 49.6691 70.9599 51.5133C70.8042 53.3575 70.2 55.1366 69.2003 56.6943C68.4658 57.8388 67.5318 58.8372 66.4497 59.648C66.4489 60.7047 66.3037 61.7585 66.0103 62.7787C65.581 64.2711 64.8498 65.6614 63.8627 66.8603C62.8759 68.0588 61.6532 69.0415 60.2714 69.7494C58.8891 70.4574 57.3757 70.8756 55.8259 70.9761C54.2763 71.0767 52.7225 70.8585 51.2606 70.3352C49.7985 69.8118 48.4586 68.9941 47.3249 67.933C46.8382 67.4774 46.3967 66.9783 45.999 66.4476C45.6016 66.9779 45.1614 67.4778 44.6751 67.933C43.5416 68.9939 42.203 69.8118 40.7413 70.3352C39.2791 70.8587 37.724 71.0767 36.1741 70.9761C34.6244 70.8755 33.1108 70.4574 31.7286 69.7494C30.3469 69.0414 29.1241 68.0588 28.1373 66.8603C27.1502 65.6614 26.419 64.2711 25.9897 62.7787C25.6963 61.7586 25.5511 60.7047 25.5502 59.648C24.4683 58.8372 23.5361 57.8386 22.8016 56.6943C21.8017 55.1365 21.1958 53.3578 21.0401 51.5133C20.8846 49.6691 21.183 47.8148 21.9075 46.1117C22.3999 44.9543 23.0823 43.8932 23.9181 42.964C23.5448 41.9022 23.3288 40.7876 23.2828 39.6565C23.213 37.9347 23.5353 36.2196 24.2263 34.641C24.9177 33.0619 25.9605 31.6592 27.2737 30.5422C28.1522 29.7951 29.1381 29.1914 30.1936 28.743C30.2856 28.1288 30.4394 27.5234 30.6558 26.938C31.0759 25.8016 31.7202 24.7602 32.5485 23.8758C33.3766 22.9919 34.3735 22.2828 35.4798 21.7894C36.5866 21.2959 37.7816 21.0272 38.9932 21.002C40.2045 20.9767 41.4089 21.1943 42.5351 21.641C43.6615 22.088 44.6875 22.7567 45.552 23.6058C45.7075 23.7584 45.8554 23.9183 45.999 24.0813C46.143 23.9179 46.2922 23.7588 46.448 23.6058C47.3126 22.7566 48.3384 22.088 49.4649 21.641C50.5911 21.1942 51.7954 20.9768 53.0068 21.002ZM39.0883 25.5458C38.4825 25.5584 37.8841 25.6927 37.3307 25.9395C36.7776 26.1862 36.28 26.5417 35.866 26.9837C35.4518 27.4259 35.1287 27.9465 34.9187 28.5147C34.7613 28.9406 34.6697 29.387 34.6447 29.8385L34.6428 30.2931V30.3007C34.6728 31.0334 34.8798 31.7479 35.2458 32.3833C35.8723 33.4707 35.4983 34.8609 34.4108 35.4873C33.3235 36.1134 31.9348 35.7393 31.3082 34.6524C31.1079 34.3047 30.9314 33.9447 30.7794 33.5759C30.5857 33.7087 30.398 33.851 30.2183 34.0038C29.4304 34.674 28.8051 35.5156 28.3903 36.4631C27.9757 37.4101 27.7816 38.439 27.8234 39.472C27.8351 39.7613 27.8666 40.0495 27.9147 40.3336C28.7292 40.3177 29.5253 40.7434 29.9482 41.5052C30.5566 42.6023 30.1608 43.9852 29.0636 44.594C28.7121 44.789 28.3786 45.0153 28.0669 45.2692C28.0584 45.2761 28.0488 45.2814 28.0402 45.2882C27.19 45.9854 26.5211 46.878 26.0905 47.8901C25.6558 48.9118 25.476 50.0247 25.5693 51.131C25.6627 52.2377 26.0251 53.3061 26.625 54.2407C27.2249 55.1754 28.045 55.9487 29.0123 56.4946C29.0167 56.4971 29.0212 56.4997 29.0256 56.5022C30.0454 57.0744 31.1944 57.3776 32.364 57.3771C33.6191 57.3765 34.6365 58.3931 34.6371 59.648C34.6374 60.9026 33.6207 61.9203 32.3659 61.9209C31.7141 61.9212 31.067 61.8597 30.4294 61.7497C30.6931 62.559 31.1049 63.313 31.6468 63.9712C32.2391 64.6905 32.9727 65.281 33.8021 65.7058C34.6313 66.1305 35.5392 66.3815 36.469 66.4419C37.3988 66.5021 38.3309 66.3698 39.2081 66.0558C40.0855 65.7417 40.8885 65.2509 41.5688 64.6141C42.2489 63.9774 42.7917 63.2089 43.1628 62.3545C43.5338 61.5005 43.7265 60.5791 43.7278 59.648V48.2914C42.6043 49.2154 41.3234 49.9433 39.9367 50.4311C38.7528 50.8474 37.4561 50.2245 37.0396 49.0408C36.6234 47.8572 37.2446 46.5606 38.4282 46.1441C39.9122 45.6221 41.2089 44.6711 42.1528 43.4128C43.0883 42.1653 43.6352 40.6704 43.7278 39.1144V30.1029C43.7296 29.497 43.6095 28.8969 43.3759 28.3379C43.1423 27.7789 42.7999 27.2712 42.3677 26.8467C41.9355 26.4223 41.4223 26.0887 40.8593 25.8653C40.2962 25.6419 39.694 25.5332 39.0883 25.5458ZM52.9117 25.5458C52.3061 25.5333 51.7037 25.6419 51.1407 25.8653C50.5777 26.0888 50.0645 26.4223 49.6323 26.8467C49.2 27.2713 48.8577 27.7788 48.6241 28.3379C48.3905 28.8969 48.2704 29.497 48.2722 30.1029V39.0859C48.3598 40.6524 48.9075 42.1575 49.8491 43.4128C50.7929 44.6711 52.0879 45.6221 53.5718 46.1441C54.7554 46.5604 55.3782 47.8572 54.9623 49.0408C54.5458 50.2246 53.2473 50.8475 52.0633 50.4311C50.6765 49.9433 49.3957 49.2155 48.2722 48.2914V59.6461L48.2817 59.9942C48.3241 60.8067 48.5123 61.6065 48.8372 62.3545C49.2083 63.2089 49.7512 63.9774 50.4312 64.6141C51.1114 65.2507 51.9147 65.7417 52.7919 66.0558C53.6689 66.3698 54.6014 66.5021 55.531 66.4419C56.4607 66.3815 57.3688 66.1304 58.1979 65.7058C59.0272 65.281 59.7609 64.6904 60.3531 63.9712C60.8949 63.3132 61.305 62.5587 61.5687 61.7497C60.9317 61.8595 60.2852 61.9212 59.6341 61.9209C58.3793 61.9202 57.3626 60.9026 57.3629 59.648C57.3635 58.3932 58.3811 57.3767 59.636 57.3771C60.8024 57.3776 61.949 57.077 62.9668 56.5079C62.9739 56.5037 62.9805 56.4986 62.9877 56.4946C63.955 55.9487 64.7751 55.1754 65.375 54.2407C65.9749 53.306 66.3373 52.2377 66.4307 51.131C66.524 50.0247 66.3461 48.9118 65.9114 47.8901C65.4805 46.8773 64.8089 45.9857 63.9578 45.2882C63.9497 45.2817 63.9412 45.2757 63.9331 45.2692C63.6213 45.0153 63.288 44.7891 62.9364 44.594C61.8394 43.9852 61.4436 42.6022 62.0518 41.5052C62.4742 40.7441 63.2698 40.3185 64.0834 40.3336C64.1315 40.0494 64.1648 39.7614 64.1766 39.472C64.2184 38.4389 64.0244 37.4102 63.6097 36.4631C63.1949 35.5156 62.5696 34.674 61.7817 34.0038C61.6016 33.8506 61.4128 33.709 61.2187 33.5759C61.0664 33.9449 60.8924 34.3066 60.6917 34.6543C60.0643 35.7406 58.6741 36.1125 57.5873 35.4854C56.501 34.858 56.129 33.4681 56.7561 32.3814C57.1178 31.7544 57.3227 31.0501 57.3572 30.3273C57.3575 30.3159 57.3586 30.3045 57.3591 30.2931C57.3861 29.688 57.2912 29.0829 57.0813 28.5147C56.8714 27.9468 56.5498 27.4257 56.1359 26.9837C55.7218 26.5416 55.2226 26.1862 54.6693 25.9395C54.1159 25.6927 53.5175 25.5584 52.9117 25.5458Z" fill="white"/>
</svg>
