<svg width="92" height="92" viewBox="0 0 92 92" fill="none" xmlns="http://www.w3.org/2000/svg">
<rect width="92" height="92" rx="46" fill="#4DBD89"/>
<path d="M45.9991 28C51.2875 28 56.4575 29.5552 60.8525 32.4675C64.9726 35.1977 68.2383 39.0057 70.2918 43.4592L70.6856 44.3595L70.716 44.433C71.0947 45.4431 71.0946 46.555 70.716 47.5651C70.7066 47.5902 70.6959 47.6157 70.6856 47.6405C68.6693 52.4809 65.2474 56.6202 60.8525 59.5325C56.4575 62.4447 51.2875 64 45.9991 64C40.7111 63.9999 35.5422 62.4444 31.1476 59.5325C26.7527 56.6202 23.3289 52.4809 21.3125 47.6405C21.3023 47.6158 21.2934 47.5901 21.284 47.5651C20.9054 46.5549 20.9053 45.4432 21.284 44.433C21.2932 44.4084 21.3025 44.3838 21.3125 44.3595C23.3289 39.5191 26.7527 35.3798 31.1476 32.4675C35.5423 29.5556 40.711 28.0001 45.9991 28ZM45.9991 32.5014C41.6111 32.5015 37.3224 33.7917 33.6758 36.208C30.0521 38.6092 27.2243 42.0145 25.5471 45.9981C27.2242 49.983 30.0512 53.3902 33.6758 55.792C37.3224 58.2083 41.6111 59.4985 45.9991 59.4986C50.3874 59.4986 54.6774 58.2085 58.3243 55.792C61.9484 53.3904 64.772 49.9825 66.4491 45.9981C64.7719 42.0151 61.9474 38.609 58.3243 36.208C54.6774 33.7915 50.3874 32.5014 45.9991 32.5014ZM50.5456 46C50.5456 43.5146 48.5094 41.5005 45.9991 41.5005C43.489 41.5007 41.4544 43.5148 41.4544 46C41.4545 48.4851 43.4891 50.4993 45.9991 50.4995C48.5093 50.4995 50.5456 48.4853 50.5456 46ZM55.0903 46C55.0902 50.9707 51.0196 55.0009 45.9991 55.0009C40.9788 55.0007 36.9098 50.9705 36.9097 46C36.9097 41.0294 40.9787 36.9993 45.9991 36.9991C51.0197 36.9991 55.0903 41.0293 55.0903 46Z" fill="white"/>
</svg>
