<svg width="92" height="92" viewBox="0 0 92 92" fill="none" xmlns="http://www.w3.org/2000/svg">
<rect width="92" height="92" rx="46" fill="#4DBD89"/>
<path d="M36.1576 28.4561C39.787 26.5181 43.9337 25.6966 48.0506 26.1002C49.0742 26.2009 49.8207 27.0921 49.7181 28.0909C49.6152 29.0898 48.7016 29.8194 47.6777 29.7193C44.3094 29.3891 40.9164 30.0603 37.9468 31.646C34.9776 33.2317 32.5696 35.6569 31.0394 38.6026C29.5092 41.5484 28.9284 44.8772 29.3734 48.151C29.8185 51.425 31.2692 54.4912 33.5337 56.9461C35.7984 59.401 38.7713 61.1304 42.0619 61.9059C45.3525 62.6814 48.8072 62.4681 51.9707 61.2926C55.1341 60.1171 57.858 58.0337 59.786 55.3192C61.7121 52.6072 62.7543 49.3911 62.7733 46.0919V44.2732C62.7733 43.2692 63.6068 42.4547 64.6359 42.4545C65.6651 42.4545 66.5 43.2691 66.5 44.2732V46.101C66.4791 50.1374 65.2061 54.0727 62.8497 57.3905C60.4933 60.7084 57.1631 63.2527 53.2966 64.6895C49.4302 66.1262 45.2085 66.3891 41.1868 65.4413C37.1651 64.4934 33.5311 62.3798 30.7633 59.3796C27.9955 56.3793 26.222 52.6318 25.6779 48.6304C25.1338 44.6288 25.8448 40.5596 27.7152 36.959C29.5855 33.3585 32.5283 30.3941 36.1576 28.4561ZM51.9691 48.6289C52.5882 47.8321 53.7519 47.6723 54.5727 48.2728C55.3961 48.8753 55.5631 50.0156 54.9455 50.8189L53.4542 49.7277C54.83 50.7344 54.9362 50.8124 54.9439 50.8189V50.8204L54.9408 50.8235L54.9221 50.8478C54.9118 50.8608 54.8988 50.8771 54.8831 50.8965C54.851 50.9361 54.8068 50.9897 54.7521 51.0533C54.6428 51.1802 54.4883 51.3524 54.2903 51.554C53.8952 51.9563 53.3181 52.4866 52.5713 53.0165C51.0844 54.0715 48.8434 55.182 46.0008 55.1822C43.1582 55.1822 40.9174 54.0715 39.4303 53.0165C38.6833 52.4865 38.1049 51.9563 37.7097 51.554C37.5117 51.3524 37.3572 51.1803 37.248 51.0533C37.1933 50.9897 37.1491 50.9361 37.1169 50.8965C37.1012 50.8771 37.0882 50.8608 37.0779 50.8478L37.0592 50.8235L37.0561 50.8204V50.8189C37.0635 50.8126 37.1673 50.7364 38.5458 49.7277L37.0545 50.8189C36.437 50.0156 36.604 48.8753 37.4274 48.2728C38.2482 47.6722 39.4119 47.8321 40.0309 48.6289L40.0387 48.6395C40.0498 48.6532 40.0718 48.6798 40.1027 48.7156C40.1645 48.7875 40.2645 48.8997 40.4006 49.0383C40.6751 49.3177 41.0882 49.6959 41.622 50.0747C42.6975 50.8377 44.1848 51.5464 46.0008 51.5464C47.8165 51.5462 49.3027 50.8376 50.378 50.0747C50.9119 49.6959 51.3249 49.3177 51.5994 49.0383C51.7355 48.8997 51.8356 48.7875 51.8974 48.7156C51.9282 48.6798 51.9502 48.6532 51.9613 48.6395C51.9658 48.6341 51.9681 48.6302 51.9691 48.6289ZM40.4271 38.8187C41.4564 38.8187 42.2913 39.6333 42.2913 40.6374C42.2909 41.6412 41.4561 42.4545 40.4271 42.4545H40.41C39.381 42.4545 38.5462 41.6412 38.5458 40.6374C38.5458 39.6333 39.3807 38.8187 40.41 38.8187H40.4271ZM51.6088 38.8187C52.638 38.8187 53.4729 39.6333 53.4729 40.6374C53.4725 41.6412 52.6378 42.4545 51.6088 42.4545H51.5916C50.5626 42.4545 49.7279 41.6412 49.7275 40.6374C49.7275 39.6333 50.5624 38.8187 51.5916 38.8187H51.6088ZM57.1825 38.8187V35.1829H53.4542C52.4252 35.1828 51.5917 34.3682 51.5916 33.3642C51.5916 32.3602 52.4251 31.5457 53.4542 31.5456H57.1825V27.9098C57.1825 26.9057 58.0159 26.0912 59.045 26.0911C60.0743 26.0911 60.9092 26.9056 60.9092 27.9098V31.5456H64.6359C65.6651 31.5456 66.5 32.3601 66.5 33.3642C66.4999 34.3683 65.6651 35.1829 64.6359 35.1829H60.9092V38.8187C60.9091 39.8228 60.0742 40.6374 59.045 40.6374C58.016 40.6372 57.1826 39.8227 57.1825 38.8187Z" fill="white"/>
</svg>
