<svg width="92" height="92" viewBox="0 0 92 92" fill="none" xmlns="http://www.w3.org/2000/svg">
<rect width="92" height="92" rx="46" fill="#4DBD89"/>
<path d="M46.2191 26.0091C46.7353 26.0512 47.23 26.2407 47.6451 26.5555C48.1191 26.915 48.4632 27.4192 48.6236 27.9921C48.627 28.0041 48.6312 28.0165 48.6343 28.0286L51.5075 39.1822C51.5887 39.4968 51.7526 39.7849 51.9823 40.0146C52.2114 40.2437 52.4982 40.4065 52.8117 40.4879H52.8133L63.9683 43.3627L63.9973 43.3703C64.5725 43.5289 65.0799 43.8727 65.4415 44.3473C65.8031 44.8222 66 45.4031 66 46C66 46.5969 65.8031 47.1778 65.4415 47.6527C65.0799 48.1273 64.5725 48.4696 63.9973 48.6282C63.9875 48.6309 63.9781 48.6348 63.9683 48.6373L52.8148 51.5106C52.5002 51.5917 52.2121 51.7557 51.9823 51.9854C51.7526 52.2151 51.5887 52.5032 51.5075 52.8178L48.6313 63.9714C48.6282 63.9833 48.6255 63.996 48.6221 64.0079C48.4617 64.5808 48.1176 65.085 47.6436 65.4445C47.1694 65.8042 46.5906 66 45.9954 66C45.4004 65.9999 44.8214 65.8041 44.3473 65.4445C43.8736 65.085 43.5307 64.5805 43.3703 64.0079C43.3669 63.996 43.3627 63.9834 43.3596 63.9714L40.4849 52.8178L40.4088 52.5865C40.3176 52.3626 40.1822 52.1575 40.01 51.9854C39.7804 51.756 39.4934 51.5917 39.1791 51.5106L28.0256 48.6343C28.0114 48.6306 27.997 48.6276 27.983 48.6236C27.4121 48.4616 26.9102 48.1171 26.5524 47.6436C26.2395 47.2295 26.0512 46.7365 26.0091 46.2222L26 46L26.0091 45.7778C26.0511 45.2635 26.2395 44.7705 26.5524 44.3564L26.6924 44.1844C27.0361 43.7992 27.4834 43.5182 27.983 43.3764C27.997 43.3724 28.0115 43.3693 28.0256 43.3657L39.1791 40.4864C39.4933 40.4054 39.7804 40.2423 40.01 40.0131C40.2396 39.7837 40.4035 39.4963 40.4849 39.1822L43.3611 28.0286C43.3642 28.0166 43.3684 28.0041 43.3718 27.9921C43.5322 27.4195 43.8752 26.915 44.3488 26.5555C44.8228 26.1959 45.402 26.0001 45.997 26L46.2191 26.0091ZM29.6342 58.7271C28.6301 58.7271 27.8156 57.9126 27.8156 56.9085C27.8156 55.9044 28.63 55.0899 29.6342 55.0899C29.6344 54.086 30.4488 53.2729 31.4527 53.2729C32.4564 53.2733 33.2696 54.0863 33.2698 55.0899C34.2739 55.0899 35.0884 55.9044 35.0884 56.9085C35.0884 57.85 34.3725 58.6236 33.4555 58.7165L33.2698 58.7271L33.2607 58.9128C33.1675 59.8292 32.3936 60.5438 31.4527 60.5442C30.4488 60.5442 29.6345 59.731 29.6342 58.7271ZM44.0064 40.0907V40.0922C43.7625 41.0353 43.2695 41.8964 42.5804 42.585C41.9777 43.1871 41.2434 43.638 40.4377 43.9044L40.0877 44.0079L32.3674 45.9985L40.0877 47.9906C41.0314 48.2341 41.8928 48.7258 42.582 49.415C43.1849 50.018 43.6362 50.7529 43.9029 51.5593L44.0064 51.9093L45.9954 59.6296L47.9875 51.9093C48.231 50.9655 48.7228 50.1042 49.412 49.415C50.1012 48.7258 50.9625 48.234 51.9063 47.9906L59.6281 46L51.9063 44.0094C50.9625 43.766 50.1011 43.2741 49.412 42.585C48.8089 41.9819 48.3562 41.2473 48.0895 40.4407L47.9875 40.0907L45.997 32.3689L44.0064 40.0907ZM58.7241 36.9101V35.0915H56.9055C55.9014 35.0915 55.0869 34.277 55.0869 33.2729C55.0871 32.269 55.9015 31.4558 56.9055 31.4558H58.7241V29.6372C58.7241 28.6332 59.5372 27.8187 60.5412 27.8186C61.5453 27.8186 62.3598 28.6331 62.3598 29.6372V31.4558H64.1784C65.182 31.4562 65.9952 32.2692 65.9954 33.2729C65.9954 34.2767 65.1821 35.0911 64.1784 35.0915H62.3598V36.9101C62.3595 37.9139 61.5451 38.7271 60.5412 38.7271C59.5374 38.727 58.7244 37.9138 58.7241 36.9101Z" fill="white"/>
</svg>
