<svg width="92" height="92" viewBox="0 0 92 92" fill="none" xmlns="http://www.w3.org/2000/svg">
<rect width="92" height="92" rx="46" fill="#4DBD89"/>
<path d="M50.3131 35.879C51.2536 35.8188 52.1305 36.3638 52.5018 37.2388L55.2648 43.7494H64.3291C65.3902 42.007 66.046 40.1621 66.0461 38.1258C66.0461 35.4406 64.9894 32.8642 63.1098 30.9655C61.2304 29.0671 58.6813 28.0013 56.0235 28.0011C54.2867 28.0011 52.9337 28.2477 51.6834 28.7978C50.4188 29.3542 49.1178 30.2822 47.5744 31.8412C46.7046 32.7196 45.2953 32.7198 44.4256 31.8412C42.8821 30.282 41.5813 29.3542 40.3166 28.7978C39.0665 28.2478 37.7148 28.0012 35.9783 28.0011C33.3202 28.0011 30.7698 29.0667 28.8902 30.9655C27.0106 32.8642 25.9557 35.4406 25.9557 38.1258C25.9559 40.167 26.6029 42.0129 27.6541 43.7494H39.0563L39.5541 42.7437L39.7163 42.4669C40.1384 41.8525 40.8416 41.4837 41.5955 41.5008C42.4571 41.5205 43.231 42.0405 43.581 42.836L45.5423 47.2976L48.3127 37.5062C48.5717 36.5914 49.3731 35.9396 50.3131 35.879ZM48.1412 54.4938C47.8835 55.4034 47.09 56.0529 46.1557 56.1191C45.2214 56.1851 44.3458 55.6539 43.9651 54.7894L41.0474 48.1602C40.8501 48.2175 40.6437 48.2506 40.4322 48.2506H31.3213C31.5301 48.4614 31.7421 48.6717 31.957 48.8815L45.9991 63.0666L60.0169 48.9097L60.0318 48.8928L60.6471 48.275C60.6551 48.2668 60.6633 48.2588 60.6713 48.2506H53.7957C52.905 48.2506 52.0998 47.7139 51.7486 46.887L50.8743 44.8267L48.1412 54.4938ZM70.5 38.1258C70.4998 41.6485 69.183 44.6334 67.4388 47.1582C67.3727 47.269 67.2985 47.3736 67.2151 47.4709C65.956 49.2308 64.5032 50.7624 63.1639 52.0888L63.1658 52.0907L47.5744 67.8408C47.1569 68.2622 46.5911 68.4998 46.0009 68.5C45.4104 68.5 44.8432 68.2626 44.4256 67.8408L28.8342 52.0907V52.0888C27.4788 50.7637 26.022 49.233 24.7644 47.4728C24.6769 47.3709 24.598 47.2617 24.5295 47.1451C22.7962 44.6266 21.5002 41.6464 21.5 38.1258C21.5 34.2472 23.0264 30.5272 25.7413 27.7845C28.4563 25.0419 32.1388 23.5 35.9783 23.5C38.161 23.5001 40.1498 23.8156 42.0952 24.6714C43.4607 25.2722 44.7338 26.1127 45.9991 27.1932C47.2648 26.1121 48.5388 25.2724 49.9048 24.6714C51.8506 23.8153 53.8404 23.5 56.0235 23.5C59.8629 23.5002 63.5457 25.0421 66.2605 27.7845C68.9751 30.5271 70.5 34.2475 70.5 38.1258Z" fill="white"/>
</svg>
