<svg width="119" height="119" viewBox="0 0 119 119" fill="none" xmlns="http://www.w3.org/2000/svg">
<g clip-path="url(#clip0_419_446)">
<path d="M12.5786 98.7772C12.7786 98.4513 13.0681 98.1898 13.4126 98.0238C13.7571 97.8579 14.142 97.7944 14.5216 97.8411C18.1814 97.8764 21.8412 97.8562 25.5015 97.8562H26.2576C25.6303 96.5164 24.7988 95.2603 24.4378 93.8815C24.032 92.3607 24.0321 90.7601 24.438 89.2393C24.8439 87.7186 25.6414 86.3308 26.7511 85.2145C27.8607 84.0982 29.2437 83.2924 30.762 82.8775C32.2803 82.4625 33.8809 82.4529 35.4041 82.8496C38.8339 83.683 42.2512 84.5677 45.8519 85.4739C45.6728 84.2429 45.4725 83.117 45.3497 81.9829C44.4819 73.9718 41.8243 66.469 38.8462 59.0554C37.6984 56.1982 36.6813 53.3086 36.7857 50.1625C36.8631 46.2607 38.265 42.5012 40.7611 39.5014C41.4079 38.7164 42.1796 38.5763 42.8428 39.0995C43.5094 39.6254 43.5599 40.3983 42.9247 41.2089C39.2891 45.8483 38.7019 50.8656 40.7684 56.3582C42.6986 61.4886 44.6771 66.6251 46.1558 71.8927C47.3349 76.0925 47.8406 80.4862 48.5387 84.8109C48.7096 85.87 49.0572 86.358 50.1283 86.5994C53.2422 87.3011 56.3242 88.1427 59.4274 88.8933C59.899 89.0075 60.3906 89.0121 60.8642 88.9066C63.938 88.1649 66.9986 87.3691 70.0693 86.6144C70.305 86.5892 70.524 86.4806 70.6867 86.3081C70.8494 86.1357 70.9451 85.9108 70.9566 85.674C71.8021 80.8457 72.3951 75.9436 73.6755 71.2291C75.077 66.0687 77.0901 61.0703 78.9097 56.0275C80.9438 50.39 80.085 45.3039 76.2025 40.7308C73.0828 37.0561 69.9613 33.3829 66.784 29.6423L64.3426 32.4815C65.0241 33.3624 65.9369 34.5061 66.8106 35.679C68.5302 37.9878 70.534 40.0999 71.7112 42.785C73.5145 46.7391 73.7409 51.2322 72.3442 55.3475C71.8841 56.7455 71.3459 58.1165 70.732 59.4541C68.9902 63.2544 66.0178 65.4908 61.8365 65.8041C59.8498 65.9546 57.8519 65.8346 55.8975 65.4474C54.5311 65.1739 53.245 64.5922 52.1373 63.7466C51.0296 62.901 50.1294 61.8139 49.5052 60.5679C47.9861 57.6908 46.7606 54.6767 46.4879 51.3677C46.0899 47.2921 47.2035 43.2124 49.617 39.9044C51.2668 37.6132 53.0525 35.4195 54.7768 33.1818C55.0193 32.8671 55.2586 32.5502 55.4272 32.3289L52.9169 29.5852C51.3543 31.4018 49.8561 33.1432 48.3582 34.8848C47.7974 35.5369 47.2541 36.205 46.6721 36.8376C46.029 37.5368 45.2539 37.6058 44.6358 37.0649C44.02 36.5262 43.983 35.7531 44.6044 35.0216C46.5732 32.7038 48.6632 30.4806 50.5106 28.0713C52.0145 26.1096 53.2456 23.9382 54.5804 21.8488C55.0757 21.0736 55.4986 20.2522 55.9956 19.478C56.3217 18.912 56.8375 18.4796 57.4517 18.2572C58.0659 18.0348 58.7389 18.0367 59.3518 18.2627C59.6624 18.346 59.9893 18.3462 60.3 18.2635C61.7503 17.8549 62.904 18.2513 63.7041 19.5553C64.6988 21.1764 65.7183 22.7884 66.6061 24.468C68.1494 27.3878 70.5137 29.6569 72.5716 32.1668C74.5383 34.5655 76.6155 36.8737 78.5801 39.2741C82.8133 44.4462 83.8305 50.225 81.652 56.5341C79.9121 61.5734 77.8542 66.5202 76.4219 71.6431C75.2059 75.993 74.6814 80.5357 73.8567 84.9941C73.8389 85.2077 73.8376 85.4223 73.8527 85.6361C75.9099 85.1197 77.8949 84.6227 79.8791 84.1227C81.5762 83.6952 83.2686 83.2489 84.9696 82.838C86.7921 82.3797 88.7121 82.5 90.4632 83.1823C92.2142 83.8645 93.7095 85.0748 94.7416 86.6453C95.7737 88.2157 96.2915 90.0685 96.223 91.9465C96.1545 93.8245 95.5032 95.6347 94.3595 97.1258C94.2152 97.3178 94.0662 97.5066 93.8388 97.8011C94.2255 97.8233 94.5119 97.8535 94.7983 97.8539C98.243 97.8572 101.688 97.8773 105.132 97.841C105.512 97.7953 105.896 97.8592 106.241 98.0251C106.585 98.191 106.875 98.4519 107.076 98.7771V99.6981C106.629 100.427 105.979 100.634 105.132 100.633C89.7258 100.614 74.3191 100.609 58.9124 100.618C58.6667 100.632 58.4204 100.626 58.1757 100.599C57.8493 100.57 57.545 100.421 57.3212 100.182C57.0975 99.9421 56.9699 99.6284 56.9629 99.3007C56.8935 98.4441 57.5512 97.8628 58.598 97.86C62.0115 97.8511 65.4249 97.8565 68.8384 97.8564H69.8454C69.8454 96.8788 69.8008 96.0479 69.8597 95.2245C69.906 94.5792 69.675 94.3228 69.0503 94.1689C64.2816 92.9941 59.5224 91.7815 54.7594 90.5838C47.9724 88.8773 41.1937 87.1364 34.3929 85.487C33.0927 85.1833 31.7286 85.3193 30.5141 85.8739C29.2995 86.4284 28.3032 87.3701 27.6812 88.5515C27.0382 89.714 26.7772 91.0493 26.9353 92.3683C27.0933 93.6873 27.6625 94.9231 28.562 95.9006C29.8887 97.3431 31.6099 97.8325 33.4683 97.843C39.6492 97.8777 45.8305 97.856 52.0116 97.8564C52.2883 97.8564 52.5669 97.8405 52.8414 97.8662C53.0185 97.8712 53.1928 97.911 53.3545 97.9835C53.5161 98.0559 53.6619 98.1594 53.7835 98.2882C53.9051 98.417 54.0001 98.5685 54.0631 98.734C54.1261 98.8996 54.1558 99.0759 54.1507 99.2529C54.1498 99.6102 54.0087 99.9529 53.7576 100.207C53.5065 100.461 53.1655 100.607 52.8083 100.612C52.6251 100.628 52.4395 100.619 52.255 100.619C39.6775 100.619 27.1 100.624 14.5225 100.633C13.6764 100.635 13.0251 100.429 12.5788 99.6981L12.5786 98.7772ZM59.8245 31.1533C59.369 31.7557 58.9857 32.2724 58.5922 32.7813C56.3766 35.6468 54.1099 38.4746 51.9549 41.3847C49.8316 44.2162 48.8663 47.7501 49.2554 51.2678C49.5235 54.1337 50.6362 56.7328 51.929 59.2358C52.4003 60.1785 53.0874 60.9967 53.9344 61.624C54.7814 62.2512 55.7645 62.6697 56.8037 62.8456C58.3747 63.117 59.9733 63.1922 61.5629 63.0697C64.7531 62.8349 66.9861 61.1063 68.2749 58.201C68.796 57.0261 69.2615 55.8211 69.667 54.6016C71.1887 50.0257 70.6807 45.6441 67.9061 41.7134C65.3645 38.1131 62.5557 34.7006 59.8245 31.1533ZM84.7283 97.8963C85.6932 97.8426 86.8942 97.8534 88.0724 97.6959C88.9062 97.6057 89.7122 97.3434 90.4395 96.9258C91.1667 96.5081 91.7994 95.944 92.2975 95.2693C92.7955 94.5946 93.1482 93.8239 93.3332 93.0059C93.5181 92.1879 93.5313 91.3404 93.3719 90.517C93.2366 89.6877 92.9331 88.8949 92.4802 88.1872C92.0272 87.4795 91.4344 86.8719 90.7381 86.4017C90.0417 85.9314 89.2566 85.6085 88.431 85.4528C87.6053 85.2971 86.7565 85.3118 85.9367 85.496C80.0552 86.8883 74.207 88.4212 68.3451 89.8961C67.6252 90.0772 66.9072 90.2656 66.1883 90.4507C67.8837 91.0753 69.628 91.5584 71.4032 91.895C72.5692 92.0923 73.7945 91.9429 74.9932 91.9479C75.854 91.9515 76.7155 91.9329 77.5754 91.9609C78.5949 91.9601 79.6009 92.1937 80.5156 92.6438C81.4303 93.0939 82.2292 93.7484 82.8506 94.5566C83.5803 95.5035 84.0443 96.6548 84.7283 97.8963ZM81.571 97.805C80.983 96.2387 79.9999 95.0742 78.437 94.9023C76.5428 94.6941 74.608 94.8529 72.6626 94.8529V97.805H81.571ZM61.4489 21.1632L61.1942 21.232C61.4075 24.1297 60.6103 27.1698 62.5854 30.1483C63.3688 29.263 64.0564 28.521 64.6941 27.7386C64.7778 27.6347 64.8366 27.513 64.866 27.3829C64.8953 27.2528 64.8945 27.1177 64.8635 26.9879C63.7507 25.0319 62.594 23.1009 61.4489 21.1632ZM54.6806 27.1274L57.2135 29.974C58.9952 27.1237 58.2923 24.1249 58.4388 21.2268L58.1969 21.1776C56.9988 23.2048 55.8007 25.232 54.6806 27.1274Z" fill="#38815D"/>
<path d="M53.8876 50.5934C53.8237 49.3095 53.8316 48.0231 53.9114 46.7401C54.0944 45.3104 54.7964 43.9978 55.8838 43.0517C56.9712 42.1057 58.3684 41.5922 59.8097 41.6088C62.8074 41.6001 65.4899 43.7637 65.7175 46.7067C65.9198 49.3325 65.9191 51.97 65.7154 54.5957C65.4879 57.5188 62.7612 59.7203 59.7975 59.7047C58.3719 59.7067 56.9934 59.1946 55.9147 58.2626C54.836 57.3305 54.1295 56.0408 53.9246 54.63C53.8386 53.2863 53.8298 51.9387 53.8983 50.5939L53.8876 50.5934ZM56.562 50.6776C56.562 51.6278 56.5421 52.5785 56.5662 53.5281C56.6164 55.5065 57.9833 56.9318 59.8119 56.9413C61.6362 56.9508 63.0434 55.5292 63.083 53.5565C63.1215 51.6262 63.1221 49.6952 63.0845 47.7636C63.0483 45.7652 61.693 44.3798 59.8407 44.3722C57.956 44.3644 56.6056 45.7791 56.5646 47.827C56.5455 48.777 56.5613 49.7274 56.562 50.6776Z" fill="#38815D"/>
</g>
<defs>
<clipPath id="clip0_419_446">
<rect width="118.98" height="118.98" fill="white"/>
</clipPath>
</defs>
</svg>
