<svg width="114" height="114" viewBox="0 0 114 114" fill="none" xmlns="http://www.w3.org/2000/svg">
<g clip-path="url(#clip0_419_462)">
<path d="M17.4832 55.9596C18.0773 54.6671 19.0836 54.2116 20.4945 54.2476C23.2815 54.3187 26.0715 54.2662 28.8602 54.2695C30.4168 54.2713 31.4615 55.2015 31.4611 56.5741C31.4608 57.9467 30.4155 58.8773 28.8597 58.8792C26.071 58.8825 23.281 58.8303 20.4941 58.901C19.0836 58.9368 18.0778 58.4799 17.4832 57.1885V55.9596Z" fill="#38815D"/>
<path d="M56.1915 95.8967C54.922 95.3004 54.4307 94.3316 54.473 92.9082C54.5563 90.0991 54.4953 87.2858 54.5002 84.4742C54.5028 82.9442 55.4716 81.8943 56.844 81.9174C58.1841 81.9398 59.1089 82.9754 59.1116 84.4748C59.1167 87.2864 59.1001 90.098 59.1207 92.9095C59.1304 94.2512 58.7561 95.3382 57.4205 95.8967H56.1915Z" fill="#38815D"/>
<path d="M77.1871 60.2629C76.1375 65.9154 73.2784 70.4691 68.5126 73.6348C61.7525 78.1251 54.5293 78.6814 47.2987 74.9646C40.9494 71.7006 37.2606 66.3205 36.2571 59.1875C36.6178 59.0689 36.9966 59.0146 37.3762 59.0271C38.544 59.0387 39.7121 59.0282 40.8801 59.0264C41.1435 60.1449 41.538 61.2285 42.0555 62.2544C44.594 66.7966 48.4693 69.1626 53.6707 68.9767C59.7712 68.7587 64.2538 62.3716 62.0205 56.5784C63.5953 56.3028 65.1841 56.4619 66.7666 56.4246C66.983 57.072 67.1079 57.7464 67.1377 58.4284C67.4785 60.8671 66.8733 63.1768 65.912 65.3788C64.6812 68.1679 62.5499 70.463 59.8594 71.8965C59.5045 72.0946 59.1411 72.2775 58.6471 72.5384C58.8052 72.5471 58.9636 72.5462 59.1216 72.5359C59.4996 72.472 59.8812 72.4191 60.2521 72.3251C66.7063 70.6887 70.7705 66.6232 72.5343 60.2244L77.1871 60.2629Z" fill="#38815D"/>
<path d="M77.1869 60.2628L72.5341 60.2241C72.9969 58.2006 73.0658 56.1069 72.7371 54.0574C72.3849 51.7227 71.5151 49.4963 70.1913 47.5411C68.8676 45.586 67.1235 43.9515 65.0866 42.7574C61.9345 40.8512 58.2226 40.0872 54.5739 40.5937C50.9252 41.1002 47.5618 42.8464 45.048 45.5391C43.1085 47.5925 41.7362 50.115 41.0661 52.859C40.5685 54.8784 40.505 56.9804 40.8797 59.0261C39.7117 59.028 38.5437 59.0384 37.3758 59.0268C36.9962 59.0143 36.6174 59.0686 36.2567 59.1872C35.5528 53.7721 37.021 48.2985 40.3406 43.9627C43.6601 39.6268 48.561 36.7812 53.9722 36.0478C60.6653 35.1378 66.5307 37.1196 71.3649 41.8586C74.8492 45.1647 76.9941 49.638 77.3902 54.4248C77.5564 56.361 77.7049 58.3335 77.1869 60.2628Z" fill="#38815D"/>
<path d="M54.5051 24.2215C54.5059 22.7112 54.497 21.201 54.5085 19.6908C54.4903 19.3796 54.5357 19.0679 54.6417 18.7748C54.7477 18.4816 54.9122 18.2131 55.1253 17.9855C55.3383 17.7579 55.5954 17.576 55.8809 17.4508C56.1664 17.3256 56.4744 17.2598 56.7861 17.2574C57.0979 17.255 57.4068 17.3159 57.6943 17.4366C57.9817 17.5573 58.2416 17.7351 58.4582 17.9593C58.6748 18.1836 58.8435 18.4495 58.9541 18.741C59.0647 19.0324 59.1149 19.3433 59.1017 19.6548C59.1151 22.7006 59.1159 25.7465 59.104 28.7925C59.1215 29.107 59.0744 29.4217 58.9655 29.7173C58.8567 30.0128 58.6884 30.2829 58.4711 30.5109C58.2538 30.7389 57.9921 30.92 57.7021 31.0429C57.4122 31.1659 57.1001 31.2281 56.7851 31.2257C55.4687 31.2136 54.5147 30.1865 54.5064 28.7518C54.4977 27.2418 54.5044 25.7316 54.5051 24.2215Z" fill="#38815D"/>
<path d="M89.1342 54.2687C90.6427 54.2687 92.1511 54.2617 93.6595 54.2707C95.0905 54.2793 96.1148 55.233 96.1286 56.5498C96.1427 57.896 95.1045 58.8746 93.631 58.878C90.6397 58.885 87.6484 58.885 84.6571 58.878C83.1783 58.8747 82.1421 57.9063 82.1502 56.5596C82.1583 55.218 83.1965 54.2754 84.6856 54.2697C86.1685 54.2642 87.6513 54.2686 89.1342 54.2687Z" fill="#38815D"/>
<path d="M39.564 36.9928C39.5634 37.4487 39.4291 37.8944 39.1779 38.2748C38.9267 38.6552 38.5695 38.9536 38.1505 39.1332C37.7145 39.3282 37.2277 39.3794 36.7606 39.2792C36.2936 39.1791 35.8706 38.9328 35.5529 38.5762C33.8464 36.8871 32.1545 35.1831 30.4568 33.4849C30.0053 33.0333 29.5385 32.596 29.1062 32.1264C28.8937 31.913 28.7253 31.6598 28.6107 31.3813C28.4961 31.1027 28.4376 30.8043 28.4385 30.5031C28.4394 30.202 28.4997 29.9039 28.6159 29.6261C28.7322 29.3482 28.902 29.096 29.1159 28.8839C29.326 28.6671 29.5775 28.4946 29.8555 28.3766C30.1335 28.2587 30.4323 28.1977 30.7342 28.1973C31.0362 28.1968 31.3352 28.257 31.6135 28.3742C31.8918 28.4913 32.1438 28.6631 32.3545 28.8794C34.5438 31.0245 36.6983 33.2053 38.8643 35.3746C39.2889 35.8094 39.538 36.3856 39.564 36.9928Z" fill="#38815D"/>
<path d="M74.0474 36.9861C74.0813 36.358 74.3481 35.7652 74.7957 35.3233C76.9299 33.1946 79.0501 31.0517 81.1963 28.9352C81.4068 28.7114 81.66 28.5321 81.941 28.4078C82.2219 28.2835 82.525 28.2169 82.8322 28.2117C83.1393 28.2066 83.4444 28.2632 83.7294 28.378C84.0144 28.4928 84.2734 28.6636 84.4912 28.8803C84.709 29.097 84.8811 29.3551 84.9975 29.6395C85.1138 29.9238 85.1719 30.2286 85.1683 30.5358C85.1648 30.843 85.0997 31.1464 84.9769 31.428C84.8541 31.7096 84.6761 31.9638 84.4534 32.1754C82.3227 34.3433 80.1734 36.4929 78.0056 38.6243C77.6899 38.9662 77.2744 39.1997 76.8182 39.2915C76.3621 39.3834 75.8885 39.3289 75.4652 39.1359C75.0442 38.9559 74.6854 38.6562 74.4333 38.274C74.1812 37.8917 74.047 37.4439 74.0474 36.9861Z" fill="#38815D"/>
<path d="M76.3329 73.8096C76.6677 73.8199 76.9972 73.8963 77.3024 74.0344C77.6076 74.1725 77.8825 74.3695 78.1113 74.6141C79.3096 75.8704 80.5937 77.0404 81.7514 78.3402C82.546 79.2325 83.4879 79.9917 84.3345 80.8399C85.4072 81.9144 85.4648 83.2863 84.5159 84.2537C83.5441 85.2445 82.1552 85.1829 81.0469 84.0796C78.962 82.004 76.8824 79.923 74.8082 77.8366C74.448 77.5212 74.1986 77.0985 74.0967 76.6307C73.9947 76.1628 74.0457 75.6747 74.242 75.238C74.4112 74.8205 74.6998 74.4622 75.0718 74.2081C75.4438 73.954 75.8825 73.8154 76.3329 73.8096Z" fill="#38815D"/>
<path d="M30.7168 84.96C30.2796 84.9517 29.8537 84.8195 29.4886 84.5789C29.1235 84.3383 28.8341 83.999 28.6541 83.6005C28.4434 83.2121 28.3624 82.7666 28.4228 82.3289C28.4831 81.8912 28.6818 81.4842 28.9897 81.1673C31.2175 78.873 33.4792 76.6118 35.7745 74.3836C36.2063 73.9879 36.7774 73.7796 37.3625 73.8042C37.9477 73.8289 38.4992 74.0845 38.8962 74.5152C39.3214 74.9347 39.5628 75.506 39.5671 76.1034C39.5715 76.7007 39.3386 77.2755 38.9196 77.7012C37.9347 78.7345 36.8166 79.6437 35.8608 80.7011C34.7799 81.8968 33.6015 82.9911 32.4928 84.1559C32.0294 84.6467 31.3914 84.9356 30.7168 84.96Z" fill="#38815D"/>
<path d="M62.0205 56.5782C61.0273 54.736 59.6366 53.3515 57.5891 52.7182C54.1247 51.6467 51.2032 53.26 50.2897 56.7517C48.7832 56.3934 47.2526 56.6561 45.7354 56.5755C45.8386 55.1154 46.2907 53.7014 47.0539 52.4524C47.817 51.2033 48.8688 50.1557 50.1209 49.3975C55.3347 46.0539 62.5711 48.1322 65.7265 53.8095C66.2148 54.6179 66.5661 55.5014 66.7662 56.4244C65.1841 56.4617 63.5952 56.3026 62.0205 56.5782Z" fill="#38815D"/>
<path d="M45.7354 56.5759C47.2527 56.6564 48.7831 56.3937 50.2898 56.7521C49.9855 59.4433 51.3263 61.0974 54.0359 61.3625C55.4944 61.5053 56.2821 62.503 56.2033 63.7964C56.1182 65.1947 55.1726 65.9972 53.7815 65.9661C52.6132 65.9456 51.4626 65.6777 50.4054 65.1801C49.3482 64.6825 48.4085 63.9665 47.6482 63.0792C46.8879 62.1919 46.3244 61.1536 45.9947 60.0326C45.665 58.9116 45.5766 57.7335 45.7354 56.5759Z" fill="#38815D"/>
</g>
<defs>
<clipPath id="clip0_419_462">
<rect width="113.38" height="113.38" fill="white"/>
</clipPath>
</defs>
</svg>
