<svg width="110" height="110" viewBox="0 0 110 110" fill="none" xmlns="http://www.w3.org/2000/svg">
<g clip-path="url(#clip0_419_454)">
<path d="M98.2279 43.9834C97.9701 45.2961 97.7751 46.6246 97.4439 47.9186C95.772 54.4536 92.6439 60.2527 88.4276 65.4912C88.2847 65.6687 88.1407 65.8453 87.9195 66.1182C88.2342 66.2581 88.5029 66.376 88.7703 66.4966C91.1955 67.5907 93.6329 68.6591 96.0411 69.7893C97.5098 70.4787 97.5492 71.5939 96.1703 72.4725C94.7215 73.3957 93.258 74.2964 91.7892 75.1875C90.883 75.7372 90.1048 75.6143 89.7014 74.9016C89.3175 74.2233 89.594 73.5115 90.4488 72.9931C91.3284 72.4597 92.2107 71.9307 93.3741 71.2297C93.2122 71.1969 93.0523 71.1549 92.8951 71.1041C90.762 70.1984 88.6369 69.2742 86.4899 68.4033C86.3404 68.3706 86.1854 68.3734 86.0371 68.4114C85.8889 68.4495 85.7517 68.5217 85.6364 68.6223C79.9848 74.4905 72.8585 77.2233 64.9716 78.3385C63.3104 78.5735 61.639 78.7371 59.9337 79.105C61.2356 79.3638 62.5275 79.7025 63.8413 79.8672C69.3541 80.5585 74.6975 79.7206 79.9062 77.9137C81.4992 77.3611 83.0434 76.6684 84.6091 76.0376C84.7949 75.9628 84.969 75.8554 85.1585 75.7941C85.4681 75.669 85.8139 75.6675 86.1246 75.7899C86.4353 75.9123 86.6872 76.1491 86.8284 76.4517C86.898 76.6027 86.937 76.7659 86.9433 76.932C86.9495 77.0981 86.9228 77.2638 86.8646 77.4195C86.8065 77.5752 86.7181 77.7179 86.6046 77.8393C86.491 77.9607 86.3546 78.0584 86.2031 78.1268C77.872 81.9759 69.2666 84.0232 60.1044 81.7352C58.237 81.2688 56.4901 80.3289 54.6732 79.6459C54.3563 79.5215 54.0041 79.5217 53.6874 79.6464C48.6075 82.3759 43.1598 83.0346 37.511 82.5332C29.5007 81.8222 22.3702 78.6636 15.5747 74.5986C14.4446 73.9224 13.3358 73.2099 12.2272 72.4985C10.7957 71.5798 10.8253 70.4864 12.3452 69.7751C14.7547 68.6474 17.1921 67.5789 19.6182 66.4865C19.8747 66.371 20.1345 66.2628 20.3499 66.1698C18.9662 64.1612 17.6077 62.19 16.2508 60.2178C16.1524 60.077 16.0616 59.9312 15.9786 59.7808C15.5699 59.0264 15.728 58.2934 16.3769 57.911C17.0033 57.542 17.683 57.7173 18.1533 58.414C18.7615 59.3151 19.3108 60.2568 19.9371 61.1447C22.7651 65.1543 25.9919 68.7737 30.2488 71.3386C34.0578 73.6337 38.2476 74.8794 42.6048 75.5668C45.1692 75.9715 47.7615 76.2013 50.3412 76.5098L50.5164 76.206C50.2338 75.9834 49.9329 75.7805 49.6717 75.5353C47.0251 73.1181 44.6826 70.3879 42.6956 67.4047C42.6023 67.2607 42.5039 67.1189 42.4228 66.9681C42.3285 66.8243 42.2637 66.6633 42.2323 66.4942C42.2008 66.3252 42.2034 66.1516 42.2397 65.9836C42.2761 65.8155 42.3456 65.6564 42.4441 65.5155C42.5427 65.3746 42.6683 65.2548 42.8136 65.1629C42.9528 65.0725 43.1087 65.0108 43.2721 64.9815C43.4355 64.9521 43.6031 64.9557 43.7651 64.992C43.9271 65.0283 44.0801 65.0966 44.2154 65.1929C44.3506 65.2892 44.4652 65.4116 44.5525 65.5527C44.9638 66.102 45.2717 66.7369 45.7263 67.2438C47.9021 69.6703 50.1115 72.0668 52.3127 74.4706C52.422 74.5679 52.54 74.655 52.6652 74.7307C53.221 67.3638 47.6632 57.3512 41.3049 54.3041C41.2432 56.1911 41.4783 58.076 42.0016 59.89C42.098 60.1588 42.1649 60.4374 42.2011 60.7207C42.2441 61.0242 42.1657 61.3325 41.9831 61.5788C41.8005 61.825 41.5282 61.9894 41.2252 62.0364C40.4675 62.1894 39.8649 61.8838 39.7136 61.1272C39.3339 59.2273 39.0185 57.3138 38.7183 55.3993C38.6312 54.8893 38.6351 54.368 38.7298 53.8593C38.9345 52.8762 38.5158 52.4014 37.6686 51.9529C30.1037 47.8933 21.8298 45.3234 13.296 44.3829C13.1887 44.3713 13.079 44.3815 12.7745 44.3815C13.1381 45.8949 13.4103 47.3456 13.8433 48.7468C14.3148 50.2728 14.917 51.7603 15.4974 53.2506C15.9123 54.3162 15.7637 55.0208 14.9773 55.3564C14.1966 55.6895 13.5774 55.3219 13.1081 54.2364C11.6964 51.1356 10.7401 47.8472 10.2689 44.4729C10.235 44.3061 10.1873 44.1425 10.1262 43.9837V42.4376C10.3675 42.1618 10.6745 41.9513 11.0187 41.8256C11.3629 41.6999 11.7333 41.663 12.0955 41.7183C16.7278 42.0377 21.3072 42.895 25.7413 44.2728C26.1784 44.4033 26.6171 44.5282 27.1459 44.6822C27.2666 43.2859 27.3561 41.9309 27.5061 40.5825C27.7986 37.7059 28.4933 34.8845 29.5699 32.2009C30.1207 30.8597 30.6236 30.6416 31.9501 31.1771C35.392 32.602 38.6637 34.4076 41.704 36.5601C42.1249 36.852 42.5442 37.146 43.0506 37.4993C43.3027 37.012 43.5324 36.5669 43.7632 36.1223C46.155 31.5184 49.0774 27.3032 52.8843 23.7382C53.9604 22.7304 54.4177 22.7354 55.4987 23.7714C56.0983 24.3459 56.6911 24.9293 57.2558 25.5375C57.8997 26.2311 57.9059 26.9731 57.3177 27.5068C56.7673 28.0061 56.0403 27.9404 55.4124 27.3242C55.0444 26.9633 54.6903 26.5886 54.3259 26.2242C54.209 26.1622 54.086 26.1124 53.9589 26.0758C52.5138 27.8603 50.9183 29.6226 49.5578 31.5501C45.5916 37.0432 42.9004 43.3516 41.6802 50.0161C41.5259 50.8859 41.6768 51.3911 42.4755 51.8875C48.1664 55.4246 52.1668 60.2912 54.0208 66.801C54.0743 66.9284 54.1384 67.0511 54.2125 67.1677C54.6282 66.0233 54.9752 64.9527 55.4017 63.9146C56.8613 60.2845 59.2009 57.0743 62.2097 54.5732C62.9772 53.9358 63.7528 53.9102 64.2609 54.4957C64.7734 55.0865 64.6621 55.871 63.9022 56.5105C59.029 60.6111 56.7464 66.0278 55.8877 72.171C55.7735 72.9881 55.697 73.8104 55.6025 74.6343C55.7164 74.6343 55.7921 74.6579 55.8221 74.631C59.4904 71.3368 62.7429 67.7084 64.9863 63.2684C67.0816 59.1216 67.4714 54.7625 66.6711 50.2375C65.5036 43.9197 63.057 37.9073 59.4815 32.5695C59.2938 32.2819 59.0833 32.0073 58.9168 31.7081C58.7332 31.4308 58.6655 31.0927 58.728 30.7661C58.7906 30.4395 58.9785 30.1504 59.2515 29.9605C59.3904 29.8564 59.5498 29.7828 59.7191 29.7445C59.8884 29.7061 60.064 29.704 60.2342 29.7381C60.4044 29.7722 60.5655 29.8419 60.707 29.9425C60.8484 30.0432 60.9671 30.1726 61.0552 30.3222C61.9132 31.6056 62.7353 32.9127 63.5215 34.2436C64.1321 35.2748 64.6666 36.3508 65.2942 37.5169C65.6461 37.2682 65.9823 37.0293 66.3197 36.792C69.4637 34.5378 72.8552 32.6505 76.428 31.1669C77.707 30.6482 78.2443 30.8737 78.7645 32.1445C80.0354 35.3687 80.7952 38.7716 81.0162 42.2303C81.0789 43.0246 81.1161 43.8209 81.1704 44.705C82.8096 44.251 84.3611 43.7915 85.9282 43.3935C89.3104 42.5068 92.7696 41.9458 96.2586 41.7181C96.6209 41.663 96.9911 41.7001 97.3353 41.8258C97.6795 41.9515 97.9864 42.1619 98.2279 42.4375V43.9834ZM95.7088 44.4433C95.5197 44.409 95.3286 44.3864 95.1366 44.3756C86.3488 45.3358 77.8402 48.0361 70.1069 52.3189C69.917 52.4061 69.7633 52.5566 69.6721 52.7445C69.5809 52.9325 69.5579 53.1464 69.6069 53.3495C69.8233 56.7887 69.1938 60.2285 67.7735 63.3682C65.6964 68.0565 62.4579 71.8823 58.8069 75.4019C58.5067 75.6912 58.2042 75.9781 57.7615 76.401C58.1073 76.401 58.2394 76.4148 58.3679 76.3989C61.4914 76.0135 64.6411 75.7699 67.7313 75.2032C72.3096 74.3637 76.6211 72.738 80.327 69.8349C86.4781 65.0162 90.7434 58.7947 93.5438 51.5674C94.4249 49.2934 94.9754 46.8918 95.7088 44.4433ZM69.3785 49.5979C72.2583 48.3554 75.2477 47.0767 78.2194 45.7572C78.3299 45.6699 78.4182 45.5578 78.4771 45.4299C78.536 45.302 78.5638 45.162 78.5582 45.0213C78.3387 42.664 78.1501 40.2997 77.7982 37.9604C77.5172 36.5649 77.1608 35.1857 76.7306 33.8288C73.0973 35.4201 69.6677 37.441 66.5152 39.8482L69.3785 49.5979ZM31.7504 33.8831C31.6949 33.9575 31.6463 34.0367 31.6051 34.1199C30.3002 37.6798 29.8575 41.3843 29.8 45.1453C29.7965 45.3736 30.1218 45.708 30.3725 45.8236C33.1224 47.0917 35.8879 48.3266 38.65 49.5685C38.7407 49.6071 38.8336 49.6404 38.9283 49.6681C39.8885 46.38 40.8352 43.1383 41.8059 39.8144C38.698 37.4502 35.323 35.4594 31.7504 33.8831ZM48.4715 79.0914L48.4277 78.9341C46.4167 78.676 44.3969 78.4723 42.3962 78.1501C34.897 76.9425 28.0972 74.272 22.7738 68.6048C22.6528 68.45 22.4787 68.3456 22.2851 68.3118C22.0916 68.2781 21.8924 68.3175 21.7262 68.4223C20.0674 69.1263 18.397 69.803 16.7367 70.5034C16.2262 70.7188 15.7341 70.9776 15.1452 71.2586C15.3757 71.433 15.4795 71.5254 15.5959 71.5977C19.1937 73.8922 23.0042 75.8347 26.9745 77.3984C32.6219 79.5477 38.4346 80.6152 44.4886 79.8687C45.828 79.7037 47.1446 79.3554 48.4715 79.0914Z" fill="#38815D"/>
<path d="M98.2279 83.4878C98.0591 83.7507 97.8261 83.9662 97.5508 84.114C97.2756 84.2618 96.9672 84.3371 96.6549 84.3327C88.1428 84.1969 80.0231 86.0966 72.0843 89.0026C67.9981 90.4983 63.8418 91.7597 59.4908 92.2883C53.3584 93.05 47.1339 92.4861 41.2382 90.6346C36.8716 89.273 32.5609 87.726 28.1712 86.4463C22.9247 84.9706 17.4923 84.2619 12.0428 84.3423C11.247 84.3457 10.5742 84.2002 10.1257 83.4878V82.629C10.5163 81.9144 11.1267 81.7455 11.9185 81.7404C20.3671 81.6863 28.463 83.4535 36.3684 86.3092C40.3002 87.7296 44.2808 89.0428 48.4336 89.6503C54.4443 90.5207 60.5742 90.013 66.3598 88.1657C70.785 86.7845 75.1583 85.2298 79.6103 83.9439C85.1725 82.4091 90.9234 81.6667 96.693 81.7387C97.0066 81.7281 97.3169 81.806 97.5883 81.9634C97.8598 82.1209 98.0814 82.3515 98.2279 82.629V83.4878Z" fill="#38815D"/>
<path d="M55.5465 17.9905C55.5518 18.171 55.5214 18.3508 55.4569 18.5196C55.3925 18.6883 55.2953 18.8427 55.1709 18.9737C55.0466 19.1047 54.8976 19.2099 54.7325 19.2831C54.5674 19.3563 54.3894 19.3962 54.2088 19.4004C54.0282 19.4046 53.8486 19.373 53.6803 19.3075C53.5119 19.242 53.3582 19.1438 53.2279 19.0187C53.0977 18.8936 52.9934 18.7439 52.9212 18.5783C52.849 18.4128 52.8103 18.2345 52.8072 18.0539C52.8025 17.693 52.9405 17.3448 53.191 17.085C53.4416 16.8252 53.7846 16.6747 54.1455 16.6664C54.5063 16.658 54.8559 16.7924 55.1182 17.0403C55.3806 17.2883 55.5345 17.6297 55.5465 17.9905Z" fill="#38815D"/>
</g>
<defs>
<clipPath id="clip0_419_454">
<rect width="109.5" height="109.5" fill="white"/>
</clipPath>
</defs>
</svg>
