<svg width="56" height="56" viewBox="0 0 56 56" fill="none" xmlns="http://www.w3.org/2000/svg">
<rect width="56" height="56" rx="12" fill="#1B6498" fill-opacity="0.1"/>
<path d="M28 39.6668C34.4434 39.6668 39.6667 34.4435 39.6667 28.0002C39.6667 21.5568 34.4434 16.3335 28 16.3335C21.5567 16.3335 16.3334 21.5568 16.3334 28.0002C16.3334 34.4435 21.5567 39.6668 28 39.6668Z" stroke="#296496" stroke-width="2.33333" stroke-linecap="round" stroke-linejoin="round"/>
<path d="M28 35C31.866 35 35 31.866 35 28C35 24.134 31.866 21 28 21C24.134 21 21 24.134 21 28C21 31.866 24.134 35 28 35Z" stroke="#296496" stroke-width="2.33333" stroke-linecap="round" stroke-linejoin="round"/>
<path d="M28 30.3332C29.2886 30.3332 30.3333 29.2885 30.3333 27.9998C30.3333 26.7112 29.2886 25.6665 28 25.6665C26.7113 25.6665 25.6666 26.7112 25.6666 27.9998C25.6666 29.2885 26.7113 30.3332 28 30.3332Z" stroke="#296496" stroke-width="2.33333" stroke-linecap="round" stroke-linejoin="round"/>
</svg>
