<svg width="64" height="64" viewBox="0 0 64 64" fill="none" xmlns="http://www.w3.org/2000/svg">
<rect width="64" height="64" rx="32" fill="#65A289" fill-opacity="0.2"/>
<path d="M33.3334 26.6667C33.3334 22.9867 30.0534 20 26.0001 20C21.9467 20 18.6667 22.9867 18.6667 26.6667H21.3334L22.6667 25.3333L24.0001 26.6667H29.3334" stroke="#4DBD89" stroke-width="2.66667" stroke-linecap="round" stroke-linejoin="round"/>
<path d="M33.3333 25.5202C34.6834 24.522 36.3209 23.9886 37.9999 24.0002C42.0533 24.0002 45.3333 26.9869 45.3333 30.6669H41.3333L39.9999 29.3335L38.6666 30.6669H34.6666" stroke="#4DBD89" stroke-width="2.66667" stroke-linecap="round" stroke-linejoin="round"/>
<path d="M23.8535 28.9466C20.9868 31.8133 20.7868 36.24 23.3868 38.8533L29.0401 33.1866L29.9735 32.2533L30.9201 31.3066L33.7468 28.48C31.1468 25.8666 26.7201 26.08 23.8535 28.9466Z" stroke="#4DBD89" stroke-width="2.66667" stroke-linecap="round" stroke-linejoin="round"/>
<path d="M30.6666 36.6665C31.3333 39.9998 30.4399 42.6665 29.3333 45.3332H34.6666C37.3333 37.9998 33.9999 29.3332 33.3333 26.6665" stroke="#4DBD89" stroke-width="2.66667" stroke-linecap="round" stroke-linejoin="round"/>
</svg>
