<svg width="64" height="64" viewBox="0 0 64 64" fill="none" xmlns="http://www.w3.org/2000/svg">
<rect width="64" height="64" rx="32" fill="#65A289" fill-opacity="0.2"/>
<path d="M42.6666 29.3332C42.6666 35.9905 35.2813 42.9238 32.8013 45.0652C32.5702 45.2389 32.289 45.3328 31.9999 45.3328C31.7109 45.3328 31.4296 45.2389 31.1986 45.0652C28.7186 42.9238 21.3333 35.9905 21.3333 29.3332C21.3333 26.5042 22.4571 23.7911 24.4574 21.7907C26.4578 19.7903 29.1709 18.6665 31.9999 18.6665C34.8289 18.6665 37.542 19.7903 39.5424 21.7907C41.5428 23.7911 42.6666 26.5042 42.6666 29.3332Z" stroke="#4DBD89" stroke-width="2.66667" stroke-linecap="round" stroke-linejoin="round"/>
<path d="M32 33.3335C34.2091 33.3335 36 31.5426 36 29.3335C36 27.1244 34.2091 25.3335 32 25.3335C29.7909 25.3335 28 27.1244 28 29.3335C28 31.5426 29.7909 33.3335 32 33.3335Z" stroke="#4DBD89" stroke-width="2.66667" stroke-linecap="round" stroke-linejoin="round"/>
</svg>
