<?xml version="1.0" encoding="UTF-8"?>
<svg id="Layer_1" data-name="Layer 1" xmlns="http://www.w3.org/2000/svg" viewBox="0 0 199.88 243.18">
  <style>
    path { fill: black; }
    @media (prefers-color-scheme: dark) {
      path { fill: white; }
    }
  </style>
  <path d="M46.2,177.34c13.64-2.79,31.66-2.72,45.11.57,3.32.81,6.58,1.31,10,1.66,4.52.47,8.73-.12,12.93-1.64,7.06-2.55,14-4.92,20.92-7.89,5.15-2.21,10.31-3.94,15.76-5.23,4.07-.96,8.18-.83,11.89.92,1.9.89,2.9,2.7,2.38,4.81-.44,1.77-1.5,3.66-3.02,4.73l-3.82,2.69-11.53,7.78-11.83,7.7c-.56.36-1.14.89-1.79,1.14-5.48,2.08-12.4,4.28-18.32,4.93,4.49,1.23,14.18-1.48,18.96-2.88,2.29-.67,4.22-1.64,6.06-3.1,3.56-2.83,7.54-4.94,11.36-7.44.62-.41,1.2-.87,1.85-1.25,3.24-1.88,6.36-3.7,9.5-5.75.66-.43,1.23-1.03,1.8-1.54,1.63-1.44,3.21-2.86,4.21-4.79,1.82-3.51.34-6.54-2.87-8.49l1.96-2.5c1.92-2.45,3.71-4.9,5.26-7.62s2.98-5,4.24-7.69c1.15-2.45,2.35-4.76,3.36-7.25,2.49-6.14,4.96-12.65,11.96-15.04,1.98-.67,4.12-.75,5.9.17,1.14.59,1.64,1.54,1.35,2.79-.78,3.42-2.22,6.48-3.59,9.7-1.3,3.05-2.41,6.04-3.51,9.18l-2.96,8.46-2.75,7.75-2.9,7.58c-1.05,2.74-2.28,5.25-3.54,7.91-1.42,3-3.12,5.76-5.41,8.19l-7.42,7.87-7.69,7.78c-2.73,2.76-5.61,5.12-8.46,7.79-3.23,3.02-6.79,5.37-10.33,8.05-4.66,3.53-9.83,5.81-15.31,8.1-18.52,5.73-35.99,5.49-55.1,2.21l-14.7-2.31c-6.79-1.07-13.82-1.33-20.57-.02-7.64,1.48-14.89,3.81-21.45,7.88-3.82,2.37-7.51,4.61-11,7.41-1.08.86-1.9,1.71-3.12,2.53.05-8.69,1.18-17.68,3.55-25.93.8-2.77,1.75-5.26,2.81-7.92s2.57-5.25,4.08-7.86c1.67-2.89,3.8-5.3,5.98-7.85,2.72-3.17,6.01-5.51,9.49-7.95,5.36-3.76,11.62-5.79,17.91-7.6.81-.23,1.53-.56,2.38-.73Z"/>
  <path d="M128.23,154.55c-2.35-1.62-6.5-6.1-8.49-8.14l-7.63-7.86-7.63-7.87-7.63-7.87-7.63-7.87-7.63-7.87-7.36-7.62c-2.19-2.27-3.62-4.97-4.53-7.92-2.45-7.95-.53-16.63,5.55-22.41.59-.56,1.1-1.3,1.68-1.89l7.16-7.34,7.63-7.87,7.63-7.87,7.63-7.87,7.63-7.87,7.63-7.86,7.64-7.86c2.62-2.7,5.02-5.41,7.9-7.95,7.29-6.42,18.95-6.25,26.19.05,2.59,2.25,4.51,4.68,5.83,7.68,3.48,7.95,2.15,17.71-3.83,23.87l-7.61,7.85-7.63,7.87-7.63,7.87-7.63,7.87-7.63,7.87-7.41,7.6c-.42.43-.76.91-1.33,1.57l6.36,6.52,7.63,7.86,7.63,7.87,7.63,7.87,6.92,7.14c.95.98,1.73,2.3,2.44,3.53,3.74,6.44,3.8,14.3.49,20.96-1.59,3.19-3.87,5.63-6.84,7.81-6.63,4.86-16.24,4.92-23.14.17Z"/>
  <path d="M75.68,51.7c-5.28,2.39-11.44,2.68-16.88-.07-9.9-5-14-17.72-9.78-27.79,2.95-7.04,9.44-12.06,17.13-12.57,14.74-.97,25.84,14.18,21.05,28.04-1.93,5.59-6.29,10.02-11.51,12.39Z"/>
  <path d="M80.07,154.29c-7,5.61-17.56,5.57-24.5.09-2.79-2.21-4.93-4.69-6.37-7.77-3.72-8.01-2.54-17.05,3.24-23.78,7.88-9.18,22.67-9.21,30.59-.05,5.84,6.75,7.02,15.85,3.26,23.88-1.41,3-3.43,5.4-6.23,7.64Z"/>
</svg>